<svg width="100%" height="1080" viewBox="0 0 1920 1080" xmlns="http://www.w3.org/2000/svg"><rect width="1920" height="1080" fill="#2d333b"/><path d="M792,1113.9999999999998C842.9360782649363,1211.0709372374542,789.7099505903768,1276.0494479274043,729.1590932319507,1357.3731411178755C668.6082358735246,1438.6968343083468,502.5942470912329,1548.1666898766302,428.6948558494429,1601.9421591428277C354.7954646076529,1655.717628409025,362.2779463312411,1639.8677463178312,285.7627457812106,1680.0259567150608C209.24754523118008,1720.1841671122904,58.77461599942194,1873.5889583229027,-30.396347450739995,1842.891421526205C-119.56731090090193,1812.1938847295073,-163.0353018646826,1562.981843503094,-249.26303491976103,1495.8407359348741C-335.49076797483946,1428.6996283666542,-485.37509727113263,1482.8626040871445,-547.7627457812105,1440.0447761168855C-610.1503942912883,1397.2269481466265,-605.800415999604,1319.950935001746,-623.588925980228,1238.9337681133197C-641.3774359608522,1157.9166012248934,-661.7981690314581,1013.791366146068,-654.4938056649552,953.9417747863272C-647.1894422984523,894.0921834265864,-632.3450467253698,965.2463578923175,-579.7627457812107,879.8362199548749C-527.1804448370516,794.4260820174322,-431.14177665386165,521.023688153709,-339.00000000000034,441.4809471616712C-246.85822334613903,361.9382061696335,-127.87254348824474,407.7393510062335,-26.912085858042957,402.57977400264826C74.04837177215883,397.420196999063,176.96940567667934,337.3156490111764,266.7627457812104,410.5234851401598C356.5560858857415,483.73132126914317,485.71797512562296,781.089452017717,511.84795476914337,841.8267907765486C537.9779344126638,902.5641295353802,376.8506161038567,729.5853161559074,423.5426236423328,774.9475176931493C470.2346311808089,820.3097192303911,741.0639217350637,1016.9290627625454,792,1113.9999999999998C842.9360782649363,1211.0709372374542,789.7099505903768,1276.0494479274043,729.1590932319507,1357.3731411178755" fill="#049c62"/></svg>